<?xml version="1.0" standalone="no"?>
<!DOCTYPE svg PUBLIC "-//W3C//DTD SVG 20010904//EN"
 "http://www.w3.org/TR/2001/REC-SVG-20010904/DTD/svg10.dtd">
<svg version="1.0" xmlns="http://www.w3.org/2000/svg"
 width="664.000000pt" height="664.000000pt" viewBox="0 0 664.000000 664.000000"
 preserveAspectRatio="xMidYMid meet">
<metadata>
Created by potrace 1.14, written by Peter Selinger 2001-2017
</metadata>
<g transform="translate(0.000000,664.000000) scale(0.100000,-0.100000)"
fill="#000000" stroke="none">
<path d="M4824 6452 c3 -4 -10 -8 -29 -7 -19 1 -32 -1 -30 -5 3 -4 -8 -10 -23
-13 -15 -3 -40 -11 -57 -18 -16 -7 -32 -13 -35 -13 -7 -1 -31 -22 -79 -68 -22
-20 -42 -34 -45 -31 -3 4 -6 2 -6 -3 0 -8 -14 -27 -60 -81 -5 -7 -10 -17 -10
-23 0 -5 -4 -10 -10 -10 -6 0 -9 -3 -8 -7 4 -17 -14 -73 -22 -68 -11 7 -32
-64 -23 -78 3 -6 1 -7 -5 -3 -6 3 -13 3 -15 -1 -6 -9 -218 -10 -232 -1 -16 10
-164 7 -171 -3 -3 -5 -9 -7 -14 -4 -5 3 -15 -4 -23 -15 -7 -11 -17 -17 -22
-12 -4 4 -5 -1 -2 -10 4 -10 2 -18 -3 -18 -6 0 -11 -158 -12 -412 l-3 -413
-105 3 c-58 1 -144 3 -193 5 -62 1 -87 6 -87 15 0 6 -4 12 -8 12 -7 0 -10 20
-12 83 0 6 1 31 3 55 3 24 0 42 -6 42 -6 0 -6 5 0 13 4 6 7 35 6 62 -1 28 -3
57 -3 65 0 8 1 34 3 58 3 24 0 42 -6 42 -6 0 -6 5 0 13 13 18 8 316 -6 352 -7
17 -11 30 -10 30 1 0 -4 11 -11 25 -8 14 -13 28 -12 33 1 4 -4 7 -11 7 -6 0
-18 14 -25 30 -8 17 -18 28 -23 24 -5 -3 -9 2 -9 10 0 9 -4 16 -10 16 -5 0
-19 9 -30 20 -11 11 -20 18 -20 15 0 -3 -8 3 -19 13 -34 31 -65 52 -78 52 -7
0 -13 5 -13 12 0 6 -3 8 -7 5 -3 -4 -12 -2 -20 4 -7 6 -13 8 -13 3 0 -5 -4 -3
-9 5 -5 7 -26 14 -47 16 -22 1 -47 5 -56 9 -25 11 -229 -11 -244 -27 -4 -4
-18 -7 -30 -7 -12 0 -29 -7 -38 -15 -8 -8 -19 -15 -24 -15 -5 0 -15 -7 -22
-15 -7 -8 -16 -13 -20 -10 -4 2 -13 -7 -20 -20 -7 -13 -16 -23 -19 -21 -3 1
-19 -10 -34 -26 -15 -15 -25 -28 -21 -28 4 0 -3 -9 -15 -19 -12 -11 -22 -22
-22 -25 3 -20 0 -26 -9 -21 -6 4 -9 3 -8 -2 3 -12 -13 -57 -23 -63 -5 -3 -9
-20 -11 -38 -1 -18 -6 -32 -11 -32 -4 0 -5 -4 -2 -10 3 -5 1 -10 -4 -10 -6 0
-11 -8 -11 -17 0 -16 -13 -18 -140 -16 -101 1 -140 -2 -140 -10 0 -8 -3 -7 -9
2 -6 9 -11 10 -15 2 -4 -6 -12 -9 -17 -6 -5 4 -9 1 -9 -4 0 -6 -9 -11 -20 -11
-11 0 -20 -4 -20 -10 0 -5 -11 -12 -25 -16 -14 -4 -24 -9 -21 -11 9 -9 -23
-35 -34 -28 -6 4 -10 3 -9 -2 4 -21 -2 -33 -17 -33 -8 0 -12 -4 -9 -10 3 -5
-1 -10 -9 -10 -14 0 -20 -12 -17 -32 0 -5 -6 -8 -15 -8 -8 0 -13 -4 -9 -9 3
-5 1 -12 -5 -16 -6 -4 -8 -10 -5 -15 3 -4 -2 -10 -10 -14 -8 -3 -15 -16 -15
-30 0 -14 -7 -31 -15 -40 -9 -8 -15 -19 -14 -23 4 -15 -14 -68 -25 -75 -7 -5
-7 -8 2 -8 7 0 10 -4 7 -10 -9 -14 -78 -13 -93 2 -9 9 -12 9 -12 0 0 -6 -7 -9
-15 -6 -8 4 -13 9 -11 13 6 10 -66 5 -144 -9 -36 -6 -71 -12 -77 -12 -7 -1
-13 -5 -13 -10 0 -4 -11 -8 -25 -8 -14 0 -25 -4 -25 -10 0 -5 -25 -21 -55 -36
-30 -15 -52 -30 -50 -34 3 -4 -7 -16 -20 -26 -14 -10 -25 -22 -25 -27 0 -4
-16 -24 -35 -44 -19 -20 -32 -39 -30 -43 3 -4 -2 -13 -9 -20 -8 -6 -18 -26
-22 -43 -3 -18 -9 -36 -12 -42 -12 -20 -8 -200 5 -225 7 -14 13 -32 13 -41 0
-8 5 -20 11 -26 14 -14 -4 -25 -45 -29 -41 -3 -76 -14 -76 -24 0 -5 -9 -6 -20
-3 -11 3 -20 0 -20 -6 0 -6 -9 -11 -20 -11 -11 0 -20 -5 -20 -11 0 -5 -4 -8
-8 -5 -5 3 -28 -14 -53 -36 -24 -23 -38 -38 -31 -34 11 7 11 4 0 -13 -7 -12
-15 -21 -18 -21 -3 0 -7 -10 -7 -22 -1 -13 -7 -24 -13 -26 -5 -2 -7 -8 -4 -13
3 -6 0 -16 -6 -24 -7 -8 -9 -15 -5 -15 4 0 2 -6 -4 -13 -6 -8 -8 -17 -5 -20 3
-3 3 -11 -2 -18 -9 -15 -10 -70 -1 -92 4 -10 2 -17 -4 -17 -6 0 -7 -5 -3 -11
3 -6 9 -28 11 -48 3 -20 9 -37 13 -39 5 -2 6 -10 3 -18 -3 -8 0 -14 6 -14 6 0
11 -3 10 -7 -2 -16 14 -53 23 -53 5 0 7 -4 3 -9 -3 -5 -1 -13 5 -16 7 -4 0
-16 -16 -30 -15 -13 -31 -22 -36 -19 -4 3 -8 0 -8 -5 0 -6 -7 -11 -16 -11 -8
0 -12 -4 -9 -10 3 -5 2 -10 -4 -10 -6 0 -20 -10 -32 -22 -12 -13 -18 -17 -14
-9 5 9 4 12 -3 7 -7 -4 -12 -14 -12 -22 0 -8 -3 -13 -8 -11 -4 1 -8 -1 -10 -5
-1 -4 -12 -18 -25 -32 -32 -35 -48 -56 -43 -56 2 0 0 -17 -6 -37 -10 -41 -14
-204 -6 -219 3 -5 9 -22 13 -39 11 -40 12 -44 15 -52 1 -5 2 -11 1 -15 0 -5 3
-8 8 -8 5 0 12 -11 15 -25 4 -14 10 -24 14 -22 11 3 62 -50 55 -57 -4 -3 -1
-6 5 -6 7 0 -16 -27 -50 -60 -33 -33 -65 -60 -70 -60 -4 0 -7 -3 -6 -7 2 -14
-15 -48 -29 -56 -7 -5 -11 -12 -8 -18 4 -5 1 -9 -6 -9 -7 0 -9 -3 -6 -7 4 -3
2 -12 -4 -20 -6 -7 -8 -13 -5 -13 4 0 0 -10 -8 -22 -9 -12 -16 -30 -16 -40 0
-10 -4 -18 -8 -18 -8 0 -10 -6 -14 -49 -1 -11 -6 -17 -10 -15 -5 3 -6 -41 -3
-98 6 -143 8 -158 14 -158 4 0 13 -15 20 -32 8 -18 22 -38 30 -45 9 -7 12 -13
7 -13 -5 0 4 -12 20 -28 16 -15 30 -31 32 -35 1 -4 4 -7 7 -7 2 0 17 -12 31
-25 15 -14 36 -25 46 -25 11 0 17 -4 14 -9 -6 -9 63 -45 108 -57 26 -6 57 -44
36 -44 -5 0 -9 -3 -9 -7 3 -16 -14 -73 -20 -69 -15 9 -17 -184 -2 -212 6 -12
7 -23 2 -26 -11 -7 12 -58 34 -76 8 -7 15 -17 15 -21 0 -13 87 -99 100 -99 6
0 8 -6 4 -12 -4 -7 -3 -10 1 -5 5 4 19 0 32 -8 13 -9 23 -13 23 -9 0 4 7 1 16
-7 9 -7 23 -14 32 -15 44 -5 87 -16 90 -23 1 -4 14 -6 28 -3 32 6 44 -11 34
-47 -4 -14 -6 -36 -5 -49 1 -12 -2 -22 -7 -22 -5 0 -7 -4 -4 -9 4 -7 11 -60
18 -138 1 -7 5 -13 10 -13 4 0 8 -7 8 -15 0 -8 9 -24 19 -34 11 -11 17 -22 13
-25 -3 -3 2 -6 11 -6 9 0 17 -7 17 -17 0 -9 3 -14 6 -11 3 3 16 -4 29 -16 43
-39 55 -47 65 -41 5 3 13 -2 18 -11 5 -9 12 -15 15 -15 4 1 23 -6 43 -14 43
-18 47 -18 38 -4 -4 8 0 8 15 0 11 -6 44 -14 73 -16 52 -5 70 -17 61 -42 -3
-7 -1 -13 5 -13 6 0 10 -20 10 -45 0 -24 3 -49 7 -55 4 -6 8 -24 10 -38 3 -41
9 -56 25 -69 12 -10 12 -12 1 -13 -9 0 -4 -9 12 -24 14 -13 23 -27 20 -30 -4
-3 1 -6 11 -6 9 0 15 -4 12 -9 -3 -5 5 -12 19 -15 14 -4 25 -14 25 -23 0 -9 3
-14 6 -10 4 3 13 -1 21 -9 8 -8 19 -12 24 -9 5 4 9 2 9 -2 0 -12 73 -43 140
-61 15 -4 43 -8 93 -15 15 -2 29 -6 31 -8 4 -4 166 4 271 13 38 3 40 2 40 -25
1 -16 5 -31 10 -35 6 -4 11 -18 13 -32 1 -13 6 -27 11 -30 4 -3 7 -15 6 -27
-1 -12 2 -20 6 -17 5 3 11 -7 15 -21 3 -14 10 -25 15 -25 5 0 9 -10 9 -22 0
-19 2 -20 10 -8 8 12 10 10 10 -8 0 -13 3 -21 8 -19 4 3 18 -10 32 -28 14 -19
35 -39 47 -46 12 -7 20 -16 17 -21 -3 -4 2 -8 10 -8 9 0 16 -4 16 -10 0 -5 7
-7 15 -4 8 4 15 2 15 -4 0 -12 38 -25 64 -22 10 1 15 -3 12 -9 -4 -6 6 -10 26
-9 43 1 125 -9 138 -17 5 -3 10 -3 10 2 0 9 57 9 66 0 3 -3 16 -2 29 3 13 5
26 6 29 3 3 -4 6 -1 6 5 0 7 3 11 8 10 14 -4 81 26 76 34 -3 4 7 10 21 14 14
3 25 10 25 15 0 5 7 9 15 9 7 0 18 7 23 16 5 9 12 15 15 15 20 -3 28 0 22 8
-3 5 4 12 15 16 11 3 20 13 20 21 0 8 5 14 11 14 11 0 34 20 37 32 8 26 16 48
33 83 17 37 18 71 19 459 0 231 2 421 5 424 6 6 184 4 334 -4 72 -4 120 -11
127 -19 7 -7 11 -14 9 -17 -2 -2 -4 -51 -4 -108 -1 -58 -1 -152 -1 -210 -1
-133 -1 -132 5 -215 2 -38 5 -114 6 -167 1 -54 6 -98 11 -98 4 0 8 -7 8 -15 0
-16 42 -30 65 -22 8 4 17 2 20 -3 3 -5 12 -7 19 -4 21 8 97 10 102 3 2 -4 17
-4 33 1 15 4 33 5 39 1 5 -3 47 -4 92 -1 58 4 85 1 92 -7 6 -7 15 -10 21 -6 5
3 7 1 3 -5 -3 -6 -2 -13 3 -16 5 -3 7 -15 4 -25 -3 -11 2 -34 10 -53 28 -65
39 -93 37 -97 -1 -2 5 -8 14 -13 9 -5 16 -15 16 -21 0 -14 35 -47 51 -47 5 0
7 -4 4 -10 -3 -5 1 -10 10 -10 11 0 15 -5 11 -15 -3 -8 -2 -14 2 -14 22 4 42
-2 37 -11 -3 -6 0 -10 8 -10 8 0 24 -9 37 -20 21 -18 41 -25 63 -21 4 0 7 -4
7 -10 0 -5 4 -8 9 -4 5 3 12 1 16 -5 7 -11 213 -11 220 0 3 4 18 6 35 4 20 -3
33 1 36 11 4 8 12 15 20 15 8 0 14 4 14 10 0 5 7 7 15 4 8 -4 15 -1 15 6 0 6
4 9 9 6 5 -3 12 1 15 10 3 8 10 13 15 10 5 -3 12 1 15 10 3 9 13 14 21 11 9
-4 12 -1 9 8 -3 8 3 16 16 20 12 4 19 9 17 12 -3 3 8 18 23 35 16 17 32 39 35
49 4 11 11 16 17 13 7 -4 8 -2 4 4 -4 6 2 20 14 32 11 11 18 20 16 20 -3 0 2
17 11 38 9 20 17 51 19 67 9 63 11 135 4 135 -3 0 -6 15 -5 33 0 17 -7 45 -17
61 -9 16 -15 34 -12 38 4 5 -1 17 -9 26 -8 9 -17 26 -21 37 -3 11 -17 32 -31
48 -14 15 -24 27 -21 27 8 0 -39 43 -60 57 -11 6 -18 15 -17 20 1 5 -3 10 -10
10 -7 0 -34 11 -62 24 -63 29 -68 30 -195 34 -69 2 -110 -1 -119 -9 -12 -9
-13 -8 -7 2 7 11 4 11 -15 0 -13 -7 -32 -19 -41 -27 -10 -8 -18 -11 -18 -7 0
8 -78 -33 -98 -51 -6 -6 -21 -15 -33 -18 -11 -4 -18 -9 -16 -12 8 -7 -26 -43
-41 -43 -7 0 -11 -4 -8 -9 3 -5 -7 -21 -22 -37 -15 -15 -22 -24 -15 -21 7 5 6
-4 -3 -23 -9 -16 -20 -30 -25 -30 -6 0 -7 -4 -4 -10 3 -5 2 -10 -4 -10 -5 0
-8 -8 -6 -18 2 -10 -1 -25 -6 -33 -5 -8 -9 -10 -9 -5 0 6 -6 1 -14 -9 -12 -17
-28 -18 -170 -18 -86 0 -160 4 -164 7 -3 4 -7 178 -7 387 0 324 -3 381 -15
389 -9 6 -10 10 -3 10 30 0 -17 75 -54 85 -13 3 -23 9 -23 13 0 4 -64 7 -142
6 -79 0 -147 2 -153 5 -5 3 -61 6 -122 7 -62 0 -115 3 -118 6 -8 7 -7 439 0
447 4 3 230 6 503 7 273 0 505 4 514 8 9 4 33 6 52 3 19 -2 39 0 45 6 6 6 11
7 11 2 0 -12 210 -12 228 -1 7 4 12 4 12 -1 0 -4 52 -8 115 -7 l114 1 13 -36
c7 -20 11 -39 10 -43 -1 -5 3 -8 9 -8 5 0 8 -4 4 -9 -3 -5 1 -16 9 -24 8 -8
12 -17 9 -21 -4 -3 -2 -6 4 -6 6 0 14 -11 17 -24 3 -14 14 -27 24 -31 9 -3 28
-21 42 -40 14 -19 33 -37 43 -40 9 -4 17 -11 17 -16 0 -5 6 -9 14 -9 7 0 19
-7 26 -15 7 -8 16 -12 21 -9 5 3 9 0 9 -6 0 -7 7 -10 15 -6 9 3 15 0 15 -8 0
-7 6 -13 13 -14 54 -5 85 -11 99 -17 20 -8 192 -1 228 10 14 4 33 8 43 8 9 1
17 5 17 9 0 5 8 12 18 16 40 16 111 68 112 81 0 8 3 12 6 8 7 -7 44 29 44 43
0 6 5 10 11 10 5 0 7 5 4 10 -3 6 1 13 10 16 9 4 14 12 11 20 -3 7 2 18 10 24
8 7 14 23 14 37 0 13 4 22 9 18 6 -3 8 3 6 14 -2 10 3 30 10 44 7 14 10 28 7
31 -3 4 -7 41 -8 84 -1 42 -4 84 -7 92 -2 8 -8 30 -12 48 -4 17 -12 32 -17 32
-5 0 -6 5 -3 10 3 6 0 13 -9 16 -8 3 -13 11 -10 19 3 7 -2 15 -10 18 -9 4 -16
13 -16 22 0 8 -3 15 -7 15 -5 0 -17 14 -28 30 -11 16 -23 30 -27 30 -5 0 -19
10 -34 22 -14 13 -30 23 -34 23 -5 0 -19 8 -30 18 -11 9 -26 17 -33 17 -7 0
-17 4 -23 8 -11 10 -89 35 -109 35 -8 0 -15 3 -15 7 0 3 -33 5 -72 4 -90 -2
-90 -2 -84 -13 3 -4 -6 -6 -19 -3 -14 2 -33 1 -42 -3 -10 -5 -24 -9 -31 -11
-8 -1 -20 -11 -29 -21 -8 -10 -12 -12 -8 -5 3 6 1 12 -4 12 -6 0 -11 -5 -11
-11 0 -5 -4 -7 -10 -4 -5 3 -10 1 -10 -4 0 -6 -7 -11 -15 -11 -8 0 -15 -4 -15
-10 0 -5 -11 -12 -25 -16 -14 -3 -22 -10 -19 -15 3 -5 0 -9 -5 -9 -13 0 -45
-32 -49 -49 -1 -7 -11 -22 -22 -34 -11 -11 -20 -29 -20 -39 0 -10 -4 -18 -8
-18 -5 0 -20 -34 -33 -75 l-23 -75 -793 0 -793 0 0 63 c-1 34 -3 89 -6 122 -3
33 -6 297 -7 588 -2 416 1 527 11 527 6 0 12 3 12 8 0 9 259 8 280 -2 13 -5
15 -40 13 -231 -1 -131 3 -225 8 -225 5 0 9 -7 9 -16 0 -8 5 -12 10 -9 6 3 10
1 10 -5 0 -6 4 -9 9 -6 5 4 11 1 13 -6 4 -10 72 -13 284 -14 153 -1 283 -2
288 -3 4 0 6 -8 2 -16 -3 -8 0 -15 6 -15 6 0 9 -3 5 -6 -3 -3 1 -23 8 -44 7
-21 11 -41 8 -44 -4 -3 -1 -6 6 -6 7 0 9 -4 6 -10 -3 -5 -2 -10 2 -10 8 0 26
-29 39 -62 3 -10 10 -18 15 -18 5 0 9 -5 9 -11 0 -7 15 -26 33 -43 17 -17 31
-35 29 -39 -1 -5 2 -6 8 -2 5 3 13 -1 16 -9 3 -9 11 -13 16 -10 6 4 13 3 17
-2 11 -16 55 -49 47 -36 -4 6 -3 12 2 12 6 0 12 -7 16 -15 3 -8 9 -14 13 -13
8 1 55 -9 83 -19 26 -9 80 -10 80 -2 0 5 10 5 23 1 29 -10 60 -6 125 14 7 2
16 4 20 5 4 0 13 5 20 11 6 6 12 7 12 2 0 -4 12 3 27 17 14 13 23 17 19 9 -4
-8 2 -4 13 10 11 14 21 21 21 17 0 -11 70 63 70 75 0 5 4 7 9 4 5 -3 12 1 15
10 4 10 2 13 -7 9 -6 -4 -4 0 6 8 9 8 17 19 17 26 0 6 5 11 11 11 5 0 8 4 4 9
-3 5 -1 12 5 16 11 7 35 84 31 103 -1 6 2 12 6 12 11 0 10 186 0 196 -4 4 -7
19 -7 33 0 15 -8 37 -17 50 -9 14 -12 21 -6 18 19 -12 -28 76 -66 123 -46 57
-86 94 -119 111 -15 8 -29 16 -32 19 -12 12 -88 43 -110 44 -8 1 -21 5 -29 10
-11 7 -12 6 -6 -5 7 -12 6 -12 -7 -1 -10 8 -32 11 -64 7 -27 -3 -57 -6 -66 -7
-10 -1 -18 -6 -18 -11 0 -5 -9 -7 -20 -4 -11 3 -20 1 -20 -4 0 -5 -7 -9 -15
-9 -20 0 -86 -32 -110 -53 -10 -10 -25 -15 -32 -13 -7 3 -12 2 -12 -2 3 -17
-2 -35 -7 -29 -6 6 -35 -18 -34 -28 0 -3 -5 -12 -12 -20 -26 -29 -34 -41 -61
-94 -16 -29 -26 -59 -23 -67 3 -8 1 -14 -5 -14 -6 0 -7 -4 -4 -10 3 -5 1 -10
-4 -10 -6 0 -10 -3 -9 -7 3 -17 -15 -42 -26 -36 -15 10 -137 11 -157 2 -9 -5
-21 -3 -28 4 -7 7 -56 12 -142 13 -116 1 -131 3 -142 20 -9 14 -12 80 -12 233
1 282 20 263 -250 265 -93 0 -175 5 -180 10 -6 5 -10 100 -10 251 0 191 3 246
14 259 8 10 18 13 23 8 8 -8 88 -6 96 3 2 2 15 0 28 -5 16 -7 24 -6 24 1 0 8
4 8 13 2 6 -5 23 -8 37 -7 30 4 74 5 115 3 17 -1 35 0 40 1 6 1 25 1 43 0 17
-1 32 2 32 7 0 13 1039 8 1052 -5 7 -7 13 -22 15 -34 2 -13 11 -38 19 -57 9
-18 17 -40 18 -47 1 -8 12 -25 23 -38 12 -13 19 -27 16 -30 -4 -3 1 -6 11 -6
9 0 15 -3 13 -7 -2 -5 18 -29 45 -55 26 -26 48 -45 48 -42 0 3 10 -4 22 -16
12 -11 28 -20 35 -20 7 0 13 -4 13 -8 0 -5 19 -15 43 -22 23 -7 49 -15 57 -18
8 -3 23 -6 33 -7 9 -2 20 -4 25 -5 4 -2 36 -3 72 -4 47 -1 68 3 77 14 7 8 13
10 13 5 0 -13 40 -17 40 -4 0 5 9 9 19 9 11 0 23 5 26 10 4 6 10 8 15 5 5 -3
15 1 23 9 8 8 17 12 21 9 3 -4 6 -1 6 6 0 7 5 9 11 6 6 -4 17 2 25 14 9 12 20
19 25 15 5 -3 8 -2 7 3 -2 5 18 30 45 56 26 26 45 47 41 47 -5 0 3 16 49 105
5 10 12 33 15 50 7 47 10 215 3 215 -3 0 -7 15 -8 32 -2 18 -7 34 -13 36 -6 2
-8 8 -4 13 3 5 1 9 -4 9 -6 0 -8 8 -6 18 3 9 -7 30 -20 46 -14 16 -24 31 -22
35 2 3 -6 15 -17 26 -11 11 -16 13 -12 5 8 -13 7 -13 -8 -1 -9 7 -17 19 -17
26 0 6 -12 17 -26 23 -14 7 -22 17 -19 22 3 6 2 10 -3 10 -5 0 -19 9 -32 20
-12 11 -27 17 -31 14 -5 -3 -9 -2 -9 3 0 10 -58 36 -121 55 -42 13 -160 16
-214 5 -53 -10 -135 -39 -135 -48 0 -5 -6 -9 -13 -9 -7 0 -23 -9 -35 -20 -12
-11 -26 -20 -32 -20 -5 0 -10 -4 -10 -10 0 -14 -78 -88 -86 -81 -4 3 -4 -2 -1
-11 4 -10 3 -18 -1 -18 -7 0 -31 -48 -36 -73 -2 -6 -6 -21 -10 -32 -5 -11 -12
-31 -17 -45 l-10 -26 -752 2 c-414 1 -754 2 -757 3 -7 2 -6 438 1 446 10 10
109 15 296 17 106 1 169 6 166 12 -3 5 -1 6 5 2 29 -18 88 54 70 87 -11 21
-15 729 -4 764 5 16 13 20 39 16 18 -2 94 -5 170 -7 75 -1 139 -5 142 -7 2 -3
6 -14 8 -25 1 -10 6 -25 10 -31 5 -7 6 -17 2 -22 -3 -5 0 -15 7 -23 7 -7 14
-19 16 -26 6 -32 103 -142 123 -142 7 0 10 -3 6 -6 -8 -9 18 -34 36 -34 8 0
18 -7 21 -16 3 -8 10 -13 15 -9 5 3 12 1 16 -5 3 -5 15 -10 26 -10 10 0 19 -5
19 -11 0 -5 5 -7 10 -4 6 3 10 2 10 -3 0 -5 11 -8 25 -6 14 1 38 -4 53 -11 25
-12 113 -13 182 -2 14 3 31 5 38 6 7 0 10 6 6 13 -4 7 -3 8 4 4 6 -4 20 -2 31
3 14 8 21 8 24 -2 4 -8 6 -9 6 0 1 6 17 17 36 23 19 6 35 16 35 21 0 5 9 9 20
9 11 0 20 4 20 10 0 5 11 12 25 16 13 3 23 9 22 13 -1 3 14 22 33 42 42 44 70
82 67 90 -1 4 5 15 14 25 24 29 34 49 20 39 -15 -9 8 35 24 47 6 4 6 8 1 8 -5
0 -4 6 1 13 6 6 9 26 8 42 -2 17 1 35 4 40 8 12 1 150 -9 175 -1 3 -2 8 -1 13
0 4 -3 7 -9 7 -5 0 -7 7 -4 15 4 8 1 15 -7 15 -7 0 -9 3 -6 7 4 3 -1 15 -10
26 -13 15 -14 19 -3 13 9 -4 8 -2 -2 7 -10 8 -18 19 -18 24 0 6 -12 24 -27 40
-16 16 -39 44 -53 61 -14 18 -30 32 -37 32 -7 0 -13 5 -13 11 0 5 -4 7 -10 4
-5 -3 -10 -2 -10 3 0 12 -117 55 -130 47 -6 -3 -10 -2 -10 3 0 11 -2 11 -128
18 -58 3 -101 1 -98 -4z m-1879 -324 c4 0 12 6 16 14 7 10 9 10 9 1 0 -15 21
-13 32 2 5 6 8 6 8 -2 0 -6 12 -10 28 -8 15 2 36 -2 47 -8 11 -6 23 -10 27 -9
3 1 12 -5 18 -13 7 -8 21 -15 31 -15 11 0 19 -4 19 -10 0 -5 7 -10 17 -10 9 0
14 -2 11 -6 -8 -7 77 -94 92 -94 8 0 10 -3 7 -7 -4 -3 0 -14 9 -24 13 -15 15
-79 15 -540 0 -288 3 -528 7 -534 4 -5 7 -540 7 -1188 0 -1039 -2 -1180 -15
-1186 -13 -6 -26 -6 -52 -2 -5 0 -9 0 -11 -1 -2 -2 -11 4 -20 14 -10 9 -25 14
-37 11 -11 -3 -20 0 -20 6 0 6 -9 11 -19 11 -11 0 -23 5 -26 11 -4 5 -30 21
-58 34 -29 13 -47 25 -42 25 6 0 4 4 -3 9 -15 9 -6 61 10 61 5 0 6 5 3 10 -3
6 -1 10 4 10 6 0 11 9 11 20 0 11 9 29 20 40 12 12 15 20 8 20 -10 0 -10 3 0
9 8 5 15 20 15 35 1 14 8 26 15 26 7 0 10 5 7 10 -4 6 -1 17 5 25 7 8 10 21 7
29 -3 8 -1 16 4 18 6 2 13 19 16 38 3 19 6 40 7 45 1 6 4 15 7 20 5 9 4 150 0
150 -2 0 -4 16 -7 35 -2 19 -6 42 -8 50 -2 8 -7 30 -11 47 -4 18 -11 30 -16
27 -5 -3 -9 6 -9 20 0 14 -5 26 -12 26 -6 0 -8 3 -5 7 4 3 2 12 -4 20 -6 7 -8
13 -4 13 5 0 -2 9 -15 20 -15 13 -18 20 -9 21 8 0 4 4 -8 9 -13 5 -23 13 -23
18 0 8 -31 9 -64 4 -14 -3 1 -99 21 -129 11 -16 13 -24 5 -19 -11 6 -11 4 -3
-10 30 -52 41 -94 46 -176 2 -31 6 -62 10 -67 3 -6 3 -11 -2 -11 -4 0 -9 -19
-9 -43 -2 -48 -6 -66 -18 -86 -7 -11 -6 -12 5 -6 12 8 12 6 0 -8 -7 -9 -10
-17 -5 -17 5 0 3 -4 -3 -8 -7 -4 -14 -17 -16 -27 -2 -11 -8 -30 -15 -41 -6
-12 -8 -24 -5 -28 3 -3 1 -6 -5 -6 -9 0 -26 -49 -22 -66 1 -3 -8 -14 -19 -23
-11 -10 -18 -21 -15 -24 3 -3 -1 -5 -9 -3 -19 2 -77 52 -77 65 0 6 -4 11 -10
11 -5 0 -10 5 -10 10 0 14 -77 89 -84 82 -3 -3 -6 0 -6 6 0 14 -65 83 -74 77
-3 -3 -4 -2 -1 2 3 3 0 12 -6 20 -6 7 -8 13 -3 13 5 0 -3 6 -18 14 -15 8 -35
13 -45 11 -10 -2 -20 -4 -23 -4 -24 -4 26 -171 51 -171 5 0 9 -6 9 -14 0 -8 9
-17 19 -21 11 -3 23 -15 26 -26 4 -10 13 -19 21 -19 8 0 14 -7 14 -15 0 -28
77 -107 160 -165 19 -13 37 -27 40 -30 3 -3 12 -6 20 -8 8 -2 17 -8 18 -13 2
-5 10 -9 18 -9 8 0 14 -5 14 -11 0 -5 4 -8 9 -4 5 3 16 -2 25 -11 9 -8 25 -16
35 -17 11 0 17 -5 15 -9 -3 -4 2 -8 10 -8 9 0 30 -9 48 -20 18 -11 42 -20 53
-20 11 0 32 -7 47 -14 15 -8 30 -11 33 -6 6 10 64 -5 79 -20 6 -6 11 -62 12
-128 2 -112 6 -151 19 -171 3 -5 1 -12 -4 -16 -5 -3 -8 -15 -6 -27 3 -11 1
-26 -3 -32 -9 -15 -9 -286 0 -286 4 0 6 -15 5 -33 -2 -17 1 -38 6 -44 6 -8 6
-13 0 -13 -11 0 -11 -29 1 -48 4 -6 4 -12 -1 -12 -10 0 -9 -91 1 -108 4 -7 3
-12 -2 -12 -10 0 -9 -30 2 -48 4 -6 3 -12 -1 -12 -10 0 -10 -61 1 -78 4 -7 3
-12 -2 -12 -5 0 -7 -12 -5 -27 2 -16 4 -32 3 -38 -5 -70 -3 -275 3 -275 5 0 5
-6 1 -12 -11 -18 -12 -48 -2 -48 5 0 6 -4 3 -10 -11 -19 -14 -50 -4 -50 6 0 7
-6 3 -12 -11 -18 -12 -48 -2 -48 4 0 -1 -9 -12 -20 -11 -11 -20 -26 -20 -34 0
-8 -7 -16 -15 -20 -8 -3 -15 -13 -15 -21 0 -9 -4 -14 -9 -11 -5 3 -20 -5 -32
-19 -13 -13 -29 -25 -36 -25 -7 0 -16 -6 -20 -13 -4 -7 -28 -23 -53 -34 -36
-17 -63 -21 -130 -20 -47 1 -91 6 -97 10 -7 5 -17 5 -23 2 -5 -3 -10 -2 -10 3
0 6 -13 15 -30 21 -17 5 -30 15 -30 21 0 7 -5 10 -11 8 -12 -4 -89 69 -89 84
0 5 -4 6 -10 3 -5 -3 -10 3 -10 15 0 11 -7 23 -15 26 -8 4 -13 10 -10 14 3 5
-3 23 -14 42 -19 32 -20 55 -7 148 2 19 7 42 9 50 3 8 8 25 12 38 4 12 12 22
19 22 6 0 4 5 -4 10 -11 7 -11 10 -2 10 7 0 11 4 8 9 -3 5 1 12 10 15 8 3 13
10 9 15 -7 13 73 94 85 86 9 -5 11 0 10 21 -1 3 32 22 72 42 40 20 75 40 76
45 2 4 11 7 20 7 10 0 30 7 45 15 18 9 25 10 20 2 -5 -9 -4 -9 8 0 8 7 30 15
49 18 38 7 78 44 59 56 -8 5 -8 8 0 14 8 4 9 11 2 18 -5 7 -11 16 -13 22 -1 5
-9 8 -17 7 -7 -2 -10 1 -7 6 8 14 -96 12 -113 -2 -12 -9 -13 -8 -6 4 8 13 7
13 -10 0 -10 -8 -20 -14 -22 -12 -8 6 -62 -13 -112 -41 -55 -30 -67 -38 -102
-69 -10 -10 -21 -18 -24 -18 -10 1 -112 -92 -107 -97 6 -7 1 -26 -5 -19 -9 9
-63 -106 -56 -118 4 -5 1 -6 -5 -2 -7 4 -14 -4 -18 -21 -3 -15 -8 -35 -11 -43
-4 -8 -6 -18 -5 -21 0 -3 -5 -6 -13 -6 -7 0 -37 -10 -66 -22 -44 -19 -70 -23
-153 -22 -56 0 -110 2 -121 5 -11 2 -44 7 -72 11 -29 4 -53 10 -53 14 0 3 -19
12 -41 19 -48 15 -129 93 -130 126 0 12 -3 30 -5 41 -12 48 -16 73 -19 124 -3
30 -7 56 -9 59 -3 2 2 11 10 19 8 8 12 19 9 24 -4 5 1 19 9 31 9 12 16 30 16
40 0 10 5 18 11 18 5 0 8 4 5 9 -3 5 1 14 9 21 8 7 15 18 15 25 0 7 7 15 15
19 8 3 14 10 13 15 -2 5 9 20 24 34 15 14 24 28 21 31 -4 3 -1 6 6 6 7 0 31
19 53 42 41 43 55 81 39 107 -10 15 -50 21 -66 10 -5 -3 -23 -9 -38 -13 -15
-4 -25 -11 -22 -16 3 -5 -10 -17 -29 -27 -19 -9 -33 -20 -30 -25 3 -4 -2 -8
-10 -8 -9 0 -16 -7 -16 -15 0 -8 -4 -15 -10 -15 -5 0 -9 -6 -7 -13 1 -6 -4
-11 -11 -9 -7 1 -12 -5 -10 -15 2 -10 -2 -17 -9 -16 -7 2 -12 0 -12 -5 3 -19
-2 -45 -8 -39 -7 8 -39 -34 -35 -45 1 -5 -3 -8 -8 -8 -6 0 -10 -7 -10 -15 0
-8 -4 -15 -10 -15 -5 0 -10 -5 -10 -11 0 -5 5 -7 11 -3 6 3 4 -5 -5 -18 -9
-14 -13 -27 -10 -30 5 -5 -93 -3 -121 2 -5 2 -19 -1 -29 -6 -15 -6 -17 -4 -11
6 6 10 4 12 -8 7 -9 -3 -18 0 -21 9 -3 9 -10 13 -15 9 -5 -3 -12 -1 -16 5 -4
6 -10 8 -15 5 -10 -6 -61 40 -85 78 -30 47 -34 173 -7 223 6 12 9 24 6 27 -3
3 -1 14 5 25 16 29 22 114 9 129 -5 7 -15 10 -21 6 -7 -4 -26 -6 -43 -4 -18 1
-35 -3 -39 -8 -3 -6 -11 -9 -16 -6 -5 4 -9 2 -9 -4 0 -5 -19 -7 -42 -5 -24 3
-57 6 -74 8 -17 1 -36 6 -42 10 -7 4 -16 5 -21 2 -4 -3 -23 8 -41 24 -19 17
-38 30 -42 30 -5 0 -7 4 -3 9 3 5 -5 17 -17 25 -12 9 -19 16 -15 16 5 0 2 6
-6 14 -8 9 -13 31 -12 55 1 23 -2 41 -8 41 -5 0 -7 24 -4 58 7 74 11 92 24
100 6 4 14 17 18 30 4 13 9 21 12 19 2 -3 15 5 28 17 13 11 36 32 52 47 15 14
37 29 48 34 27 11 135 12 135 1 0 -4 6 -6 14 -3 7 3 25 -1 39 -8 14 -7 28 -11
31 -7 3 3 6 0 6 -6 0 -6 7 -9 15 -6 8 4 15 1 15 -7 0 -7 3 -10 6 -6 4 3 21 -1
38 -10 17 -10 34 -17 38 -18 3 0 10 -3 14 -7 22 -22 93 20 77 45 -4 7 -8 17
-9 22 0 6 -2 16 -2 23 -1 7 -6 10 -12 7 -5 -3 -10 1 -10 9 0 8 -9 18 -20 21
-11 3 -20 11 -20 16 0 5 -3 8 -7 7 -10 -2 -96 24 -103 32 -3 3 -10 6 -16 7 -6
1 -24 5 -40 9 -51 13 -234 15 -234 4 0 -6 -5 -8 -10 -5 -5 3 -10 1 -10 -5 0
-7 -7 -10 -15 -6 -8 3 -15 0 -15 -6 0 -6 -3 -9 -6 -6 -3 3 -16 -5 -29 -18 -23
-23 -75 -34 -75 -16 0 5 -6 9 -12 10 -42 2 -98 22 -98 33 0 5 -7 9 -15 9 -8 0
-15 5 -15 10 0 6 -5 10 -11 10 -7 0 -22 11 -34 24 -13 14 -26 22 -29 19 -3 -4
-6 -2 -6 3 0 6 -10 21 -22 34 -13 14 -23 27 -23 30 -1 3 -9 20 -19 39 -10 19
-20 48 -21 65 -2 17 -5 40 -8 51 -2 11 0 25 5 32 5 7 7 17 3 23 -3 5 -1 10 4
10 6 0 11 11 11 25 0 14 5 25 11 25 5 0 7 5 4 10 -3 6 -1 10 6 10 7 0 10 3 6
6 -3 4 0 19 8 34 8 15 11 30 8 34 -4 3 -1 6 5 6 7 0 12 4 12 9 0 19 62 101 71
95 5 -3 8 -2 7 3 -4 12 71 83 88 83 9 0 12 5 9 10 -3 6 -1 11 4 11 26 3 30 4
37 12 4 4 15 7 24 7 10 0 24 8 31 17 12 15 12 16 -1 8 -13 -8 -13 -6 -2 8 14
16 8 76 -6 78 -44 5 -68 12 -70 20 -2 5 -7 7 -12 4 -4 -3 -19 8 -33 24 -14 17
-28 27 -31 24 -3 -4 -6 1 -6 10 0 10 -7 17 -16 17 -8 0 -13 4 -10 9 3 5 -1 12
-9 15 -8 3 -15 9 -14 13 1 4 1 10 -1 13 -14 36 -18 128 -7 170 15 62 33 110
39 105 3 -4 9 3 13 14 3 12 10 19 15 16 4 -3 10 2 14 10 3 8 12 15 21 15 8 0
15 4 15 8 0 4 13 16 30 25 16 10 30 15 30 12 0 -3 9 -1 20 5 14 7 20 7 20 0 0
-5 7 -10 16 -10 8 0 13 -3 11 -7 -3 -5 2 -15 11 -23 9 -8 17 -14 17 -12 0 2 8
0 17 -3 10 -4 15 -11 12 -16 -3 -5 -2 -8 3 -7 4 1 31 -9 58 -21 53 -25 155
-53 155 -42 0 3 25 5 55 5 30 -1 58 2 61 7 3 5 10 7 15 4 5 -4 12 1 15 10 6
13 9 14 16 3 7 -10 11 -10 22 5 7 9 18 17 25 17 6 0 11 5 11 12 0 6 3 9 6 6 3
-3 24 13 48 36 36 34 43 48 44 82 1 31 -3 44 -16 49 -27 12 -52 13 -52 2 0 -6
-3 -7 -6 -4 -4 4 -15 -3 -25 -15 -11 -11 -19 -18 -19 -13 0 4 -7 2 -15 -5 -8
-7 -15 -10 -15 -6 0 3 -9 -3 -20 -14 -12 -12 -25 -18 -30 -15 -6 4 -10 2 -10
-3 0 -5 -40 -9 -90 -10 -54 0 -90 4 -90 10 0 6 -7 7 -15 4 -9 -3 -18 1 -21 9
-4 8 -15 15 -25 15 -10 0 -19 5 -19 10 0 6 -7 10 -16 10 -8 0 -12 5 -9 10 3 6
0 10 -8 10 -22 0 -85 80 -121 157 -19 39 -32 74 -29 77 3 3 2 11 -3 18 -19 26
8 194 28 182 7 -4 8 -2 4 5 -4 6 -2 19 6 28 11 14 11 16 -2 8 -8 -4 -6 1 5 12
11 11 23 19 28 16 4 -2 7 1 7 7 0 5 26 22 58 37 57 26 112 37 112 21 0 -4 13
-8 30 -8 30 0 80 -18 91 -33 3 -4 23 -10 44 -14 30 -5 40 -2 48 13 15 26 17
64 3 64 -6 0 -4 5 4 10 12 8 11 10 -8 10 -12 0 -21 4 -20 8 2 5 -16 34 -39 66
-24 31 -43 59 -43 62 0 3 -7 12 -15 21 -8 8 -13 19 -10 24 4 5 2 9 -2 9 -5 0
-10 34 -11 75 -2 41 1 75 5 75 4 0 8 10 9 23 1 35 7 51 28 70 10 9 16 17 12
17 -4 0 -2 9 4 20 6 11 15 18 21 15 5 -4 9 2 9 12 0 10 9 26 20 36 11 9 20 14
20 10 0 -3 9 4 20 17 11 13 20 19 20 14 0 -5 5 -1 11 9 6 9 14 15 20 12 5 -4
9 -1 9 6 0 7 3 9 6 6 4 -3 16 -1 28 5 27 15 196 20 196 6 0 -6 6 -8 14 -5 8 3
17 3 21 -1 4 -4 10 -7 13 -8 25 -4 72 -28 72 -37 0 -6 3 -8 6 -4 4 3 13 -1 21
-9 8 -8 20 -11 26 -7 7 3 9 3 5 -1 -4 -5 14 -28 39 -52 24 -24 41 -44 37 -44
-4 0 3 -11 16 -25 13 -14 20 -25 17 -25 -4 0 0 -11 9 -25 9 -14 12 -25 8 -25
-5 0 -3 -4 4 -9 8 -5 15 -20 15 -35 1 -14 5 -26 9 -26 4 0 5 -7 2 -15 -4 -8
-2 -15 3 -15 5 0 8 -16 7 -35 -2 -25 3 -42 21 -61 26 -28 47 -28 80 0 19 17
22 27 19 85 -2 36 -4 76 -5 89 -1 12 -6 22 -12 22 -6 0 -8 3 -4 6 3 4 0 19 -8
34 -8 15 -11 30 -8 34 4 3 1 6 -5 6 -7 0 -12 7 -12 15 0 9 -7 18 -15 21 -8 4
-12 10 -9 15 3 5 0 9 -6 9 -7 0 -10 6 -7 13 3 7 -4 19 -14 25 -10 7 -19 18
-19 25 0 6 -16 23 -34 37 -19 14 -32 28 -30 32 2 4 -5 9 -16 13 -11 4 -18 10
-15 15 3 5 1 11 -3 14 -10 6 -9 36 2 54 4 7 10 24 12 39 3 15 9 32 15 39 5 6
6 14 2 17 -3 4 -2 7 4 7 6 0 13 8 17 18 13 39 76 128 76 107 0 -3 11 6 25 20
33 33 83 58 97 49 6 -4 8 -3 5 3 -9 14 35 25 98 25 79 0 87 -1 80 -12 -3 -5 0
-7 7 -5 20 8 73 -37 77 -65 9 -67 135 -250 172 -250 5 0 8 -4 5 -8 -3 -5 23
-19 58 -31 67 -24 196 -38 196 -21 0 5 6 7 13 5 22 -9 57 36 57 73 0 42 -32
61 -108 63 -40 1 -72 6 -72 11 0 5 -6 8 -12 6 -17 -3 -59 20 -79 43 -9 10 -20
15 -24 11 -5 -4 -5 -2 -2 5 4 6 0 18 -8 26 -8 9 -15 21 -15 27 0 6 -4 9 -8 6
-5 -3 -9 0 -9 7 -1 21 -8 42 -17 48 -19 14 -23 249 -4 249 4 0 10 10 14 22 4
13 14 29 23 36 13 11 13 12 1 7 -8 -4 -4 3 9 14 13 12 20 21 16 21 -3 0 0 7 9
15 8 8 20 15 26 15 6 0 9 4 5 9 -6 10 34 37 48 33 4 -1 7 2 7 7 0 7 43 29 70
35 3 1 11 5 18 10 7 4 19 5 27 2 8 -3 15 0 15 7 0 9 3 8 9 -1 4 -8 12 -14 16
-14z"/>
<path d="M2605 4914 c-8 -8 -17 -15 -20 -14 -9 0 -8 -10 5 -41 7 -16 15 -27
18 -24 3 2 11 0 19 -6 7 -7 31 -13 53 -14 22 -1 45 -7 52 -12 7 -5 24 -7 38
-3 15 4 34 1 48 -8 12 -8 22 -11 22 -7 0 4 8 1 17 -6 15 -12 16 -12 8 1 -7 12
-6 13 7 3 8 -7 17 -11 20 -8 2 3 29 -18 58 -46 29 -28 49 -54 44 -57 -5 -4
-10 -14 -12 -22 -2 -8 -10 -19 -18 -23 -8 -5 -12 -12 -9 -18 4 -5 1 -9 -5 -9
-7 0 -26 -16 -43 -35 -17 -19 -37 -35 -44 -35 -7 0 -13 -4 -13 -9 0 -5 -12
-12 -27 -16 -15 -3 -31 -11 -34 -17 -4 -6 -21 -11 -38 -13 -44 -3 -81 -34 -81
-67 0 -33 20 -40 95 -33 71 7 75 7 75 17 0 5 4 7 9 4 5 -3 14 1 21 9 7 8 16
12 21 9 15 -9 144 95 144 116 0 3 10 15 22 27 l23 23 25 -24 c14 -13 25 -28
25 -35 0 -6 5 -11 10 -11 6 0 9 -3 9 -7 -4 -22 2 -43 10 -39 5 4 8 -2 6 -11
-1 -10 5 -27 14 -37 9 -11 10 -16 4 -12 -7 4 -13 2 -13 -3 0 -6 5 -11 12 -11
6 0 8 -3 5 -7 -4 -3 3 -12 16 -18 17 -9 27 -9 48 3 22 12 25 20 24 61 -2 54
-12 91 -26 91 -6 0 -7 5 -3 11 3 6 1 15 -6 19 -6 4 -13 19 -13 33 -1 14 -5 24
-8 22 -3 -2 -11 12 -18 31 -7 19 -17 32 -22 29 -5 -3 -6 0 -3 8 3 8 -10 26
-31 42 -19 16 -35 35 -35 43 0 9 -3 13 -6 9 -8 -8 -34 18 -34 33 0 6 -4 9 -8
6 -5 -3 -15 6 -22 19 -7 14 -21 27 -32 31 -10 3 -18 10 -18 15 0 6 -4 7 -10 4
-5 -3 -10 -1 -10 5 0 7 -6 10 -14 7 -8 -3 -20 1 -27 9 -8 10 -15 11 -24 4 -7
-6 -15 -6 -21 0 -5 5 -29 10 -54 11 -25 1 -49 5 -55 9 -20 14 -155 9 -170 -6z"/>
<path d="M1965 4336 c-12 -35 -12 -40 2 -69 8 -15 18 -25 23 -22 5 3 12 0 15
-5 4 -6 17 -10 28 -9 12 2 43 -7 69 -19 26 -12 52 -22 57 -22 6 0 11 -5 11
-11 0 -5 4 -8 9 -4 5 3 16 -2 24 -10 9 -8 20 -15 24 -15 15 0 52 -47 45 -56
-4 -4 -2 -5 3 -1 10 5 62 -41 80 -72 6 -10 4 -12 -6 -6 -10 6 -9 3 2 -11 21
-25 51 -103 44 -114 -3 -5 -1 -11 5 -15 5 -3 10 -17 10 -30 0 -13 3 -26 8 -29
4 -2 7 -24 6 -48 -1 -53 13 -98 32 -98 8 0 14 -4 14 -9 0 -5 9 -11 20 -14 11
-3 20 -1 20 4 0 5 7 9 16 9 8 0 12 5 9 10 -3 6 -1 10 5 10 7 0 10 27 9 75 -1
41 -5 75 -9 75 -4 0 -8 12 -8 28 0 25 -8 84 -13 90 -1 1 -2 5 -3 10 -11 43
-33 101 -44 120 -8 12 -12 22 -9 22 4 0 -4 10 -16 23 -12 12 -31 34 -41 49
-11 15 -23 25 -28 22 -4 -3 -8 -1 -8 5 0 13 -47 61 -63 64 -11 2 -18 7 -52 35
-8 7 -15 10 -15 6 0 -3 -12 1 -26 11 -15 9 -23 11 -19 5 4 -7 -6 -3 -23 10
-25 19 -45 23 -115 25 -79 2 -86 0 -92 -19z"/>
<path d="M2634 4103 c3 -3 -1 -12 -9 -20 -10 -9 -12 -21 -6 -36 5 -12 9 -26
10 -32 3 -15 61 -32 109 -31 23 1 42 -2 42 -6 0 -5 25 -8 55 -8 48 0 88 -12
105 -31 3 -3 13 -8 23 -12 9 -3 17 -13 17 -22 0 -8 4 -14 8 -12 13 3 73 -64
75 -84 1 -10 5 -15 9 -13 5 3 11 -2 14 -10 3 -9 10 -13 15 -10 5 3 9 1 9 -4 0
-5 12 -9 28 -8 18 1 27 6 27 18 0 9 3 19 6 23 8 8 -1 54 -12 61 -5 3 -9 14 -9
25 0 10 -5 19 -12 19 -6 0 -9 3 -5 6 7 8 -17 34 -32 34 -6 0 -11 5 -11 11 0
15 -26 39 -34 32 -3 -4 -6 0 -6 8 0 14 -96 76 -111 72 -5 -2 -9 0 -9 5 0 4
-12 8 -27 9 -16 1 -46 5 -68 9 -52 8 -208 14 -201 7z"/>
<path d="M1587 3478 c-7 -4 -26 -8 -44 -8 -18 0 -49 -9 -68 -20 -20 -11 -41
-17 -47 -14 -6 4 -8 3 -5 -3 4 -6 -4 -14 -18 -17 -14 -4 -34 -14 -45 -23 -10
-9 -25 -18 -33 -19 -8 -1 -23 -9 -33 -18 -11 -9 -23 -17 -29 -18 -5 0 -20 -15
-32 -31 -13 -17 -23 -27 -23 -21 0 5 -8 -3 -18 -19 -10 -15 -21 -25 -24 -22
-3 4 -10 -8 -16 -24 -6 -17 -15 -31 -20 -31 -11 0 -9 -61 3 -81 18 -29 58 -28
84 2 14 16 29 25 34 22 6 -3 8 -2 5 3 -3 5 15 28 38 52 24 23 44 39 44 36 0
-4 9 3 20 16 11 13 20 19 20 14 0 -5 5 -1 11 9 5 9 17 17 24 17 8 0 15 5 15
11 0 5 4 8 9 4 6 -3 14 2 19 11 5 9 11 15 13 14 2 -1 20 4 40 13 78 32 159 33
159 1 0 -8 9 -24 19 -35 10 -11 22 -35 25 -52 3 -18 9 -45 12 -62 7 -41 7
-125 0 -155 -4 -14 -9 -55 -13 -92 -6 -72 -4 -76 47 -68 32 5 77 70 71 104 -1
4 2 13 7 20 11 14 10 256 -1 274 -5 6 -5 12 -1 12 3 0 -1 11 -10 24 -10 16
-12 27 -6 31 6 4 8 10 5 15 -9 14 8 19 66 20 58 2 84 -2 95 -13 4 -4 16 -7 26
-7 10 0 18 -4 18 -8 0 -5 21 -8 46 -7 63 1 75 23 35 64 -17 17 -37 31 -46 31
-8 0 -15 5 -15 12 0 6 -3 9 -6 5 -3 -3 -25 1 -47 9 -23 9 -54 16 -69 16 -16 1
-28 4 -28 7 0 9 -299 8 -313 -1z"/>
<path d="M2224 3063 c-9 -6 -22 -41 -28 -73 -1 -3 -5 -11 -9 -17 -5 -7 -6 -13
-2 -13 3 0 0 -10 -7 -22 -7 -13 -13 -25 -14 -28 -5 -22 -18 -39 -25 -34 -5 3
-9 -2 -9 -10 0 -9 -4 -16 -10 -16 -5 0 -10 -7 -10 -16 0 -8 -4 -12 -10 -9 -5
3 -10 1 -10 -5 0 -15 -26 -41 -34 -33 -3 4 -6 2 -6 -4 0 -14 -53 -35 -98 -39
-79 -8 -87 -9 -95 -22 -5 -7 -12 -10 -18 -7 -5 3 -6 -1 -3 -9 3 -9 1 -16 -4
-16 -16 0 -5 -41 17 -63 13 -13 33 -19 68 -20 54 0 150 20 159 34 3 5 10 7 15
4 5 -4 9 -1 9 5 0 6 11 16 25 22 13 6 27 19 30 29 4 11 12 16 21 12 9 -3 14 1
14 12 0 9 4 13 10 10 6 -3 7 1 4 9 -3 9 -2 16 3 16 5 0 19 18 32 40 12 22 27
40 33 40 6 0 5 7 -3 17 -10 11 -10 14 -1 9 11 -6 14 0 11 20 0 4 5 10 12 15 7
4 15 18 17 31 7 32 7 117 0 123 -10 10 -73 16 -84 8z"/>
<path d="M2272 2382 c-26 -4 -70 -42 -49 -42 8 0 9 -3 1 -8 -18 -12 -12 -40
10 -50 33 -16 95 -25 169 -25 39 0 67 -4 67 -10 0 -6 3 -8 6 -4 4 3 28 -5 55
-19 27 -13 49 -21 49 -17 0 5 4 3 8 -4 4 -6 14 -13 22 -15 8 -2 32 -21 54 -43
22 -22 43 -39 48 -37 4 1 8 -6 8 -15 0 -36 -12 -61 -32 -66 -11 -3 -17 -10
-13 -16 3 -6 -1 -11 -11 -11 -10 0 -14 -3 -11 -7 4 -3 -7 -16 -23 -28 -16 -12
-27 -25 -23 -28 3 -4 -3 -7 -15 -7 -11 0 -22 -5 -24 -12 -4 -11 -12 -14 -73
-25 -16 -3 -33 -11 -37 -16 -4 -6 -26 -12 -50 -13 -56 -2 -71 -6 -84 -24 -13
-16 0 -57 26 -77 16 -14 150 -18 150 -5 0 4 8 9 18 10 66 6 109 26 156 70 21
20 35 30 31 22 -5 -8 14 8 41 35 77 79 77 79 107 51 14 -13 23 -27 20 -30 -4
-3 0 -6 7 -6 7 0 10 -3 7 -7 -4 -3 -2 -12 4 -19 6 -7 13 -28 16 -46 3 -18 7
-40 8 -48 2 -8 4 -20 4 -26 2 -20 38 -54 57 -54 11 0 26 6 34 13 17 14 26 70
14 89 -5 7 -9 22 -9 33 -2 37 -17 95 -26 101 -5 3 -7 10 -4 15 4 5 1 9 -4 9
-6 0 -11 7 -11 15 0 8 -4 15 -9 15 -5 0 -12 11 -15 25 -4 14 -11 25 -16 25 -5
0 -17 17 -27 38 -20 42 -37 62 -53 62 -6 0 -8 5 -5 10 3 6 -2 10 -11 10 -10 0
-15 3 -11 6 7 7 -49 64 -63 64 -6 0 -10 6 -10 13 0 6 -32 28 -70 47 -39 19
-70 38 -70 42 0 5 -3 7 -7 6 -5 -1 -21 4 -36 10 -16 7 -37 12 -47 12 -10 0
-22 5 -26 11 -4 8 -9 7 -15 -2 -5 -8 -9 -9 -9 -3 0 13 -92 13 -102 -1 -5 -7
-10 -7 -15 0 -8 10 -40 13 -81 7z"/>
</g>
</svg>
